<?xml version="1.0" standalone="no"?>
<!DOCTYPE svg PUBLIC "-//W3C//DTD SVG 1.1//EN" "http://www.w3.org/Graphics/SVG/1.1/DTD/svg11.dtd" >
<svg xmlns="http://www.w3.org/2000/svg" xmlns:xlink="http://www.w3.org/1999/xlink" version="1.1">
<metadata></metadata>
<defs>
<font id="genericaregular" horiz-adv-x="1208" >
<font-face units-per-em="2048" ascent="1638" descent="-410" />
<missing-glyph horiz-adv-x="501" />
<glyph unicode="&#xd;" horiz-adv-x="508" />
<glyph horiz-adv-x="0" />
<glyph horiz-adv-x="0" />
<glyph unicode=" "  horiz-adv-x="501" />
<glyph unicode="&#x09;" horiz-adv-x="501" />
<glyph unicode="&#xa0;" horiz-adv-x="501" />
<glyph unicode="!" horiz-adv-x="277" d="M100 0h66v187h-66v-187zM100 328h66v1107h-66v-1107z" />
<glyph unicode="&#x22;" horiz-adv-x="283" d="M51 1247h66v188h-66v-188zM167 1247h66v188h-66v-188z" />
<glyph unicode="#" horiz-adv-x="1703" d="M70 386h360l-126 -386h70l126 386h522l-126 -386h69l126 386h541v66h-520l155 473h365v66h-344l145 444h-69l-145 -444h-522l145 444h-69l-145 -444h-558v-66h536l-154 -473h-382v-66zM521 452l154 473h522l-154 -473h-522z" />
<glyph unicode="$" horiz-adv-x="996" d="M70 159q161 -170 395 -188v-231h66v229q5 1 6 1q169 10 278 110q123 113 111 300q-10 157 -132 246q-93 67 -268 104v1l-35 6q-335 64 -349 300q-8 132 79 232q88 99 221 107q61 5 145 -13q166 -37 278 -156l48 46q-153 161 -382 186v233h-66v-229q-17 0 -28 -1 q-159 -10 -265 -130q-106 -119 -96 -279q17 -275 373 -354v-1l25 -5q4 0 7 -1q195 -37 283 -107q89 -69 96 -189q10 -162 -98 -255q-90 -77 -230 -85q-58 -6 -141 14q-161 37 -273 155z" />
<glyph unicode="%" horiz-adv-x="1519" d="M79 1158q0 -116 83 -198q82 -83 198 -83q117 0 199 83q83 82 83 198q0 117 -83 199q-82 83 -199 83q-116 0 -198 -83q-83 -82 -83 -199zM145 1158q0 90 63 153t152 63q90 0 153 -63t63 -153q0 -89 -63 -152t-153 -63q-89 0 -152 63t-63 152zM409 0h71l580 1435h-71z M876 253q0 -116 83 -198q82 -83 198 -83q117 0 199 83q83 82 83 198q0 117 -83 199q-82 83 -199 83q-116 0 -198 -83q-83 -82 -83 -199zM942 253q0 90 63 153t152 63q90 0 153 -63t63 -153q0 -89 -63 -152t-153 -63q-89 0 -152 63t-63 152z" />
<glyph unicode="&#x26;" horiz-adv-x="1071" d="M84 493q-43 -169 47 -319q58 -97 157 -151q96 -53 205 -53q117 0 217 60l177 105l86 -136h78l-652 1041q-47 78 -25 167t100 136q79 47 168 25t136 -100l56 34q-61 101 -176 130q-116 29 -218 -32t-130 -177q-29 -116 32 -218l97 -154l-164 -98q-149 -90 -191 -260z M148 477q35 143 161 219l165 99l377 -603l-175 -105q-127 -76 -269 -41q-143 36 -219 162t-40 269z" />
<glyph unicode="'" horiz-adv-x="165" d="M51 1247h66v188h-66v-188z" />
<glyph unicode="(" horiz-adv-x="548" d="M70 455q0 -225 111 -423q108 -191 296 -315v80q-158 117 -248 286q-93 175 -93 372v526q0 197 93 372q90 170 248 286v80q-188 -124 -296 -315q-111 -198 -111 -423v-526z" />
<glyph unicode=")" horiz-adv-x="548" d="M70 -203v-80q188 124 296 315q111 198 111 423v526q0 225 -111 423q-108 191 -296 315v-80q159 -116 248 -286q93 -175 93 -372v-526q0 -197 -93 -372q-89 -169 -248 -286z" />
<glyph unicode="*" horiz-adv-x="947" d="M20 1082l399 -130l-246 -339l53 -39l247 340l247 -340l53 39l-247 339l399 130l-20 63l-399 -130v420h-66v-420l-400 130z" />
<glyph unicode="+" horiz-adv-x="1401" d="M70 684h598v-598h66v598h598v66h-598v599h-66v-599h-598v-66z" />
<glyph unicode="," horiz-adv-x="168" d="M-22 -186q75 34 73 167v206h66v-206q1 -46 -13 -96q-26 -98 -98 -131z" />
<glyph unicode="-" horiz-adv-x="1401" d="M70 684h1262v66h-1262v-66z" />
<glyph unicode="." horiz-adv-x="168" d="M51 0h66v187h-66v-187z" />
<glyph unicode="/" horiz-adv-x="508" d="M-71 0h71l580 1435h-71z" />
<glyph unicode="0" horiz-adv-x="1622" d="M80 706q0 -305 216 -520q215 -216 520 -216q304 0 519 216q216 215 216 520q0 304 -216 519q-215 216 -519 216q-305 0 -520 -216q-216 -215 -216 -519zM146 706q0 276 196 473q197 196 474 196q257 0 449 -173l-945 -946q-174 192 -174 450zM366 210l946 945 q173 -192 173 -449q0 -277 -196 -474q-197 -196 -473 -196q-258 0 -450 174z" />
<glyph unicode="1" horiz-adv-x="268" d="M-6 1369h107v-1369h66v1435h-173v-66z" />
<glyph unicode="2" horiz-adv-x="847" d="M70 0v33q0 182 54 307q79 183 295 344q293 218 293 403q0 119 -84 203t-202 84q-143 0 -229 -113q-59 -77 -59 -174h-66q0 119 73 214q106 139 281 139q146 0 249 -103q103 -104 103 -250q0 -218 -319 -456q-191 -141 -265 -296q-54 -113 -58 -269h609v-66h-675z" />
<glyph unicode="3" horiz-adv-x="1040" d="M70 420q0 -186 132 -318t318 -132q187 0 319 132t132 318q0 170 -113 298q-111 127 -277 149l339 499v67h-782v-66h702l-346 -510v-52h26q159 0 272 -113t113 -272t-113 -271q-113 -113 -272 -113t-271 113q-113 112 -113 271h-66z" />
<glyph unicode="4" horiz-adv-x="831" d="M70 349h624v-349h66v1435h-102l-588 -1018v-68zM145 415l549 951v-951h-549z" />
<glyph unicode="5" horiz-adv-x="1118" d="M70 456h66q1 -174 125 -297t298 -123h2q175 1 298 126q123 124 122 299t-126 298t-299 122h-420v552h781v-66h-715v-420h357q201 0 344 -142t144 -343q1 -203 -141 -347t-344 -145h-3q-202 0 -345 142t-144 344z" />
<glyph unicode="6" horiz-adv-x="1121" d="M89 329q54 -196 230 -295q112 -64 240 -64q132 0 246 67q115 66 180 181q99 176 46 371q-54 195 -230 295q-112 63 -241 63q-132 0 -247 -67l308 553h-76l-410 -733q-100 -176 -46 -371zM152 346q-46 169 40 321q56 99 155 157q99 57 213 57q111 0 208 -55 q153 -86 199 -255q47 -169 -40 -321q-56 -99 -155 -156q-99 -58 -213 -58q-111 0 -208 55q-152 86 -199 255z" />
<glyph unicode="7" horiz-adv-x="925" d="M70 1369h722l-358 -1369h68l352 1346v89h-784v-66z" />
<glyph unicode="8" horiz-adv-x="975" d="M80 387q0 -172 122 -295q123 -122 295 -122q173 0 295 122q123 123 123 295q0 130 -74 237q-72 104 -189 151q88 44 141 127q55 86 55 187q0 145 -103 248t-248 103t-248 -103q-102 -103 -102 -248q0 -101 54 -187q53 -83 142 -127q-117 -47 -189 -151q-74 -107 -74 -237 zM146 387q0 146 103 249t248 103q146 0 249 -103t103 -249q0 -145 -103 -248t-249 -103q-145 0 -248 103t-103 248zM213 1089q0 118 83 202q84 83 201 83q118 0 202 -83q83 -84 83 -202q0 -117 -83 -201q-84 -83 -202 -83q-117 0 -201 83q-83 84 -83 201z" />
<glyph unicode="9" horiz-adv-x="1121" d="M89 825q54 -195 230 -295q112 -64 240 -64q133 0 248 67l-309 -533h76l411 713q100 176 46 372q-54 195 -230 295q-112 63 -241 63q-132 0 -246 -66q-114 -67 -179 -181q-100 -176 -46 -371zM152 842q-46 169 40 321q57 99 155 157q99 57 213 57q111 0 208 -55 q152 -86 199 -255t-40 -321q-56 -99 -155 -157q-99 -57 -213 -57q-111 0 -208 55q-152 87 -199 255z" />
<glyph unicode=":" horiz-adv-x="168" d="M51 0h66v187h-66v-187zM51 834h66v187h-66v-187z" />
<glyph unicode=";" horiz-adv-x="168" d="M-22 -186q75 34 73 167v206h66v-206q1 -46 -13 -96q-26 -98 -98 -131zM51 834h66v187h-66v-187z" />
<glyph unicode="&#x3c;" horiz-adv-x="881" d="M70 668l742 -367v73l-693 343l693 343v74l-742 -367v-99z" />
<glyph unicode="=" horiz-adv-x="1401" d="M70 394h1262v66h-1262v-66zM70 954h1262v66h-1262v-66z" />
<glyph unicode="&#x3e;" horiz-adv-x="881" d="M70 301l742 367v99l-742 367v-74l693 -343l-693 -343v-73z" />
<glyph unicode="?" horiz-adv-x="732" d="M50 1125h66q0 84 51 151q75 99 199 99q104 0 177 -73q73 -74 73 -177q0 -78 -183 -563q-42 -112 -84 -235h70q36 104 76 212q187 496 187 586q0 130 -93 223q-92 93 -223 93q-156 0 -251 -125q-65 -85 -65 -191zM352 0h66v187h-66v-187z" />
<glyph unicode="@" horiz-adv-x="1613" d="M67 709q-41 -307 149 -525q188 -214 492 -214q109 0 217 31l-19 64q-98 -29 -198 -29q-274 0 -442 192q-170 195 -133 472q37 278 260 476q224 197 502 197q274 0 442 -192q170 -195 133 -472q-36 -273 -253 -469q-54 -49 -89 -28q-20 13 -6 81l185 808l-64 15l-49 -212 q-17 49 -49 90q-96 119 -265 119q-167 0 -313 -118t-184 -285q-40 -175 59 -299q95 -120 265 -120q229 0 392 198l-41 -182q-24 -113 35 -151q42 -26 95 -8q41 13 74 43q234 213 273 509q41 307 -149 524q-187 215 -491 215q-302 0 -545 -214q-242 -214 -283 -516zM447 695 q34 146 161 249q126 103 272 103q138 0 213 -95q79 -98 46 -242q-33 -146 -160 -249q-127 -104 -272 -104q-138 0 -214 95q-79 99 -46 243z" />
<glyph unicode="A" horiz-adv-x="1348" d="M20 0h71l133 321h899l133 -321h71l-594 1435h-118zM252 387l422 1018l422 -1018h-844z" />
<glyph unicode="B" horiz-adv-x="1217" d="M70 0h702q155 0 265 110t110 265q0 130 -80 232q-79 100 -202 132q181 110 181 320q0 156 -110 266t-266 110h-600v-1435zM136 66v618h636q128 0 218 -90q91 -91 91 -219t-91 -218q-90 -91 -218 -91h-636zM136 750v619h534q128 0 219 -91t91 -219q0 -127 -91 -218 t-219 -91h-534z" />
<glyph unicode="C" horiz-adv-x="1370" d="M70 706q0 -305 216 -520q215 -216 520 -216q283 0 494 191l-47 47q-191 -172 -447 -172q-277 0 -474 196q-196 197 -196 474q0 276 196 473q197 196 474 196q256 0 447 -172l47 47q-211 191 -494 191q-305 0 -520 -216q-216 -215 -216 -519z" />
<glyph unicode="D" horiz-adv-x="1317" d="M70 0h459q296 0 507 210q210 211 210 507q0 297 -210 507q-211 211 -507 211h-459v-1435zM136 66v1303h393q269 0 460 -191t191 -461q0 -269 -191 -460t-460 -191h-393z" />
<glyph unicode="E" horiz-adv-x="1024" d="M70 0h884v66h-818v618h735v66h-735v619h818v66h-884v-1435z" />
<glyph unicode="F" horiz-adv-x="1034" d="M80 0h66v684h735v66h-735v619h818v66h-884v-1435z" />
<glyph unicode="G" horiz-adv-x="1610" d="M70 706q0 -305 216 -520q215 -216 520 -216q304 0 519 216q216 215 216 520v33h-686v-66h619q-13 -267 -206 -451q-194 -186 -462 -186q-277 0 -474 196q-196 197 -196 474q0 276 196 473q197 196 474 196q256 0 447 -172l47 47q-211 191 -494 191q-305 0 -520 -216 q-216 -215 -216 -519z" />
<glyph unicode="H" horiz-adv-x="1345" d="M70 0h66v684h1073v-684h66v1435h-66v-685h-1073v685h-66v-1435z" />
<glyph unicode="I" horiz-adv-x="277" d="M100 0h66v1435h-66v-1435z" />
<glyph unicode="J" horiz-adv-x="277" d="M-249 -319v-66q172 0 293 122q122 121 122 293v1405h-66v-1405q0 -144 -102 -247q-103 -102 -247 -102z" />
<glyph unicode="K" horiz-adv-x="1336" d="M70 0h66v394l338 314l746 -708h96l-794 753l736 682h-97l-1025 -950v950h-66v-1435z" />
<glyph unicode="L" horiz-adv-x="1024" d="M70 0h884v66h-818v1369h-66v-1435z" />
<glyph unicode="M" horiz-adv-x="1734" d="M70 0h66v1382l685 -1382h110l668 1349v-1349h66v1435h-97l-692 -1397l-693 1397h-113v-1435z" />
<glyph unicode="N" horiz-adv-x="1273" d="M70 0h66v1394l968 -1394h102v1435h-66v-1371l-952 1371h-118v-1435z" />
<glyph unicode="O" horiz-adv-x="1622" d="M80 706q0 304 216 519q215 216 520 216q304 0 519 -216q216 -215 216 -519q0 -305 -216 -520q-215 -216 -519 -216q-305 0 -520 216q-216 215 -216 520zM146 706q0 -277 196 -474q197 -196 474 -196q276 0 473 196q196 197 196 474q0 276 -196 473q-197 196 -473 196 q-277 0 -474 -196q-196 -197 -196 -473z" />
<glyph unicode="P" horiz-adv-x="1301" d="M70 0h66v469h611q200 0 341 142q142 142 142 341q0 200 -142 341q-141 142 -341 142h-677v-1435zM136 535v834h611q173 0 295 -122t122 -295q0 -172 -122 -294q-122 -123 -295 -123h-611z" />
<glyph unicode="Q" horiz-adv-x="1622" d="M70 706q0 -305 216 -520q215 -216 520 -216q259 0 461 163l120 -133h89l-160 177q225 217 225 529q0 304 -216 519q-215 216 -519 216q-305 0 -520 -216q-216 -215 -216 -519zM136 706q0 272 191 467l896 -991q-184 -146 -417 -146q-277 0 -474 196q-196 197 -196 474z M376 1218q186 157 430 157q276 0 473 -196q196 -197 196 -473q0 -283 -203 -480z" />
<glyph unicode="R" horiz-adv-x="1301" d="M70 0h66v469h588l274 -469h76l-275 472q182 20 306 157q125 138 125 323q0 200 -142 341q-141 142 -341 142h-677v-1435zM136 535v834h611q173 0 295 -122t122 -295q0 -172 -122 -294q-122 -123 -295 -123h-611z" />
<glyph unicode="S" horiz-adv-x="996" d="M73 161q181 -191 439 -191q17 0 28 1q169 10 278 110q112 103 112 267q0 16 -1 33q-10 158 -132 247q-93 67 -268 104l-35 6q-335 64 -349 301q-1 11 -1 22q0 118 80 209q88 99 221 107q15 1 31 1q51 0 114 -14q166 -37 278 -156l48 46q-126 133 -310 174q-72 17 -130 16 q-19 0 -36 -1q-159 -10 -265 -130q-97 -109 -97 -251q0 -13 1 -27q17 -277 373 -355l32 -7q194 -37 283 -106q89 -70 96 -190q1 -14 1 -27q0 -143 -99 -228q-90 -77 -230 -85q-12 -1 -25 -1q-50 0 -116 15q-161 37 -273 155z" />
<glyph unicode="T" horiz-adv-x="1080" d="M70 1369h437v-1369h66v1369h437v66h-940v-66z" />
<glyph unicode="U" horiz-adv-x="1298" d="M70 550q0 -240 170 -410t410 -170q239 0 409 170t170 410v885h-66v-885q0 -213 -150 -363q-151 -151 -363 -151q-213 0 -363 151q-151 150 -151 363v885h-66v-885z" />
<glyph unicode="V" horiz-adv-x="1348" d="M20 1435l595 -1435h118l594 1435h-71l-582 -1405l-583 1405h-71z" />
<glyph unicode="W" horiz-adv-x="2229" d="M20 1435l517 -1435h90l488 1354l488 -1354h90l517 1435h-70l-492 -1365l-492 1365h-82l-492 -1365l-492 1365h-70z" />
<glyph unicode="X" horiz-adv-x="1077" d="M20 0h79l439 669l439 -669h79l-479 730l463 705h-79l-423 -645l-424 645h-78l462 -705z" />
<glyph unicode="Y" horiz-adv-x="1077" d="M20 1435l485 -739v-696h66v695l485 740h-79l-434 -661h-10l-434 661h-79z" />
<glyph unicode="Z" horiz-adv-x="1080" d="M70 0h940v66h-861l861 1303v66h-940v-66h860l-860 -1303v-66z" />
<glyph unicode="[" horiz-adv-x="623" d="M70 -283h482v66h-416v1870h416v66h-482v-2002z" />
<glyph unicode="\" horiz-adv-x="508" d="M-71 1435l580 -1435h71l-580 1435h-71z" />
<glyph unicode="]" horiz-adv-x="623" d="M70 -217v-66h482v2002h-482v-66h416v-1870h-416z" />
<glyph unicode="^" horiz-adv-x="567" d="M20 1178h83l178 237l179 -237h83l-194 257h-135z" />
<glyph unicode="_" horiz-adv-x="1401" d="M70 -1v-66h1262v66h-1262z" />
<glyph unicode="`" horiz-adv-x="255" d="M21 1435l138 -257h75l-138 257h-75z" />
<glyph unicode="a" d="M70 503q0 -220 156 -377q157 -156 377 -156q149 0 275 77q123 74 193 200v-246h66v1005h-66v-246q-70 126 -193 200q-126 77 -275 77q-220 0 -377 -157q-156 -156 -156 -377zM136 503q0 194 137 331t330 137q194 0 331 -137t137 -331q0 -193 -137 -330t-331 -137 q-193 0 -330 137t-137 330z" />
<glyph unicode="b" d="M70 0h66v247q69 -126 192 -200q127 -77 275 -77q221 0 377 156q157 157 157 377q0 221 -157 377q-156 157 -377 157q-148 0 -275 -77q-123 -74 -192 -200v675h-66v-1435zM136 503q0 194 137 331t330 137q194 0 331 -137t137 -331q0 -193 -137 -330t-331 -137 q-193 0 -330 137t-137 330z" />
<glyph unicode="c" horiz-adv-x="1049" d="M70 503q0 -220 156 -377q157 -156 377 -156q221 0 377 156l-46 47q-137 -137 -331 -137q-193 0 -330 137t-137 330q0 194 137 331t330 137q194 0 331 -137l46 46q-156 157 -377 157q-220 0 -377 -157q-156 -156 -156 -377z" />
<glyph unicode="d" d="M70 503q0 -220 156 -377q157 -156 377 -156q149 0 275 77q123 74 193 200v-247h66v1435h-66v-675q-70 126 -193 200q-126 77 -275 77q-220 0 -377 -157q-156 -156 -156 -377zM136 503q0 194 137 331t330 137q194 0 331 -137t137 -331q0 -193 -137 -330t-331 -137 q-193 0 -330 137t-137 330z" />
<glyph unicode="e" d="M70 503q0 -220 156 -377q157 -156 377 -156q221 0 377 156l-46 47q-137 -137 -331 -137q-184 0 -319 126q-134 126 -147 308h1000v33q0 221 -157 377q-156 157 -377 157q-220 0 -377 -157q-156 -156 -156 -377zM137 536q13 183 147 308q135 127 319 127q185 0 319 -127 q135 -125 147 -308h-932z" />
<glyph unicode="f" horiz-adv-x="554" d="M70 0h66v619h349v66h-349v341q0 144 102 247q103 102 247 102v66q-171 0 -293 -121q-122 -122 -122 -294v-1026z" />
<glyph unicode="g" horiz-adv-x="1217" d="M80 503q0 -220 156 -377q157 -156 377 -156q149 0 275 77q123 74 193 200v-201q0 -193 -137 -330t-331 -137v-66q221 0 377 156q157 157 157 377v960h-66v-246q-70 126 -193 200q-126 77 -275 77q-220 0 -377 -157q-156 -156 -156 -377zM146 503q0 194 137 331t330 137 q194 0 331 -137t137 -331q0 -193 -137 -330t-331 -137q-193 0 -330 137t-137 330z" />
<glyph unicode="h" horiz-adv-x="981" d="M80 0h66v622q0 144 102 247q103 102 247 102q145 0 247 -102q103 -103 103 -247v-622h66v622q0 171 -122 293t-294 122q-226 0 -349 -191v589h-66v-1435z" />
<glyph unicode="i" horiz-adv-x="265" d="M100 0h66v1005h-66v-1005zM100 1342h66v187h-66v-187z" />
<glyph unicode="j" horiz-adv-x="265" d="M-249 -422v-66q172 0 293 122q122 122 122 293v1078h-66v-1078q0 -144 -102 -247q-103 -102 -247 -102zM100 1342h66v187h-66v-187z" />
<glyph unicode="k" horiz-adv-x="962" d="M70 0h66v224l276 267l438 -491h89l-480 537l483 469h-95l-711 -690v971h-66v-1287z" />
<glyph unicode="l" horiz-adv-x="277" d="M100 0h66v1435h-66v-1435z" />
<glyph unicode="m" horiz-adv-x="1744" d="M80 0h66v622q0 144 102 247q103 102 247 102q145 0 247 -102q103 -103 103 -247v-622h66v622q0 144 102 247q102 102 247 102q144 0 247 -102q102 -103 102 -247v-622h66v622q0 171 -122 293q-121 122 -293 122q-127 0 -232 -71q-102 -69 -150 -182q-49 113 -151 182 q-105 71 -232 71q-226 0 -349 -191v160h-66v-1006z" />
<glyph unicode="n" horiz-adv-x="981" d="M80 0h66v622q0 144 102 247q103 102 247 102q145 0 247 -102q103 -103 103 -247v-622h66v622q0 171 -122 293t-294 122q-226 0 -349 -191v160h-66v-1006z" />
<glyph unicode="o" horiz-adv-x="1217" d="M80 503q0 221 156 377q157 157 377 157q221 0 377 -157q157 -156 157 -377q0 -220 -157 -377q-156 -156 -377 -156q-220 0 -377 156q-156 157 -156 377zM146 503q0 -193 137 -330t330 -137q194 0 331 137t137 330q0 194 -137 331t-331 137q-193 0 -330 -137t-137 -331z " />
<glyph unicode="p" d="M70 -488h66v734q69 -126 192 -200q127 -77 275 -77q221 0 377 156q157 157 157 377q0 221 -157 377q-156 157 -377 157q-148 0 -275 -77q-123 -74 -192 -200v246h-66v-1493zM136 502q0 194 137 331t330 137q194 0 331 -137t137 -331q0 -193 -137 -330t-331 -137 q-193 0 -330 137t-137 330z" />
<glyph unicode="q" d="M70 502q0 -220 156 -377q157 -156 377 -156q149 0 275 77q123 74 193 200v-734h66v1493h-66v-246q-70 126 -193 200q-126 77 -275 77q-220 0 -377 -157q-156 -156 -156 -377zM136 502q0 194 137 331t330 137q194 0 331 -137t137 -331q0 -193 -137 -330t-331 -137 q-193 0 -330 137t-137 330z" />
<glyph unicode="r" horiz-adv-x="623" d="M70 0h66v504q0 193 137 330t330 137v66q-148 0 -275 -77q-123 -74 -192 -200v246h-66v-1006z" />
<glyph unicode="s" horiz-adv-x="763" d="M70 108l48 45q77 -81 188 -107q43 -10 75 -10q12 0 22 1q98 6 159 58q65 57 65 155v17q-6 83 -66 129q-61 47 -198 72q-278 53 -291 264q-1 11 -1 22q0 104 71 183q78 87 194 95q11 1 23 1q44 0 97 -12q133 -30 225 -126l-48 -46q-112 119 -258 119q-17 0 -34 -2 q-90 -6 -149 -73q-55 -62 -56 -142q0 -7 1 -14q10 -161 238 -204q139 -26 211 -74q99 -66 107 -188q1 -11 0 -22q0 -122 -82 -198q-79 -73 -203 -80q-8 -1 -20 -1q-187 0 -318 138z" />
<glyph unicode="t" horiz-adv-x="554" d="M70 385q0 -172 122 -293q121 -122 293 -122v66q-144 0 -247 102q-102 103 -102 247v551h349v65h-349v282h-66v-898z" />
<glyph unicode="u" horiz-adv-x="981" d="M70 385v621h66v-621q0 -144 102 -247q103 -102 247 -102q145 0 247 102q103 103 103 247v621h66v-621q0 -171 -122 -293t-294 -122q-171 0 -293 122t-122 293z" />
<glyph unicode="v" horiz-adv-x="990" d="M20 1006l417 -1006h117l417 1006h-71l-404 -976l-405 976h-71z" />
<glyph unicode="w" horiz-adv-x="1603" d="M20 1006l362 -1006h90l331 916l330 -916h90l362 1006h-70l-337 -936l-337 936h-76l-338 -936l-337 936h-70z" />
<glyph unicode="x" horiz-adv-x="816" d="M20 0h79l309 472l310 -472h79l-349 532l310 473h-79l-271 -413l-270 413h-79l310 -473z" />
<glyph unicode="y" horiz-adv-x="990" d="M20 1005l417 -1006h46l-202 -487h71l619 1493h-71l-404 -975l-405 975h-71z" />
<glyph unicode="z" horiz-adv-x="934" d="M70 0h794v66h-709l709 873v66h-794v-66h712l-712 -873v-66z" />
<glyph unicode="{" horiz-adv-x="764" d="M80 685q86 0 147 -61t61 -147v-22q0 -225 111 -423q108 -191 296 -315v80q-158 117 -248 286q-93 175 -93 372v22q0 163 -144 241q144 78 144 241v22q0 197 93 372q90 170 248 286v80q-188 -124 -296 -315q-111 -198 -111 -423v-22q0 -86 -61 -147t-147 -61v-66z" />
<glyph unicode="|" horiz-adv-x="277" d="M100 -183h66v1812h-66v-1812z" />
<glyph unicode="}" horiz-adv-x="764" d="M80 -203v-80q188 124 296 315q111 198 111 423v22q0 86 61 147t147 61v66q-86 0 -147 61t-61 147v22q0 225 -111 423q-108 191 -296 315v-80q159 -116 248 -286q93 -175 93 -372v-22q0 -163 144 -241q-144 -78 -144 -241v-22q0 -197 -93 -372q-89 -169 -248 -286z" />
<glyph unicode="~" horiz-adv-x="610" d="M71 1342q82 68 208 -8q75 -45 152 -45q55 0 108 24v75q-108 -68 -226 3q-136 82 -242 30v-79z" />
<glyph unicode="&#xa1;" horiz-adv-x="277" d="M100 -414h66v1107h-66v-1107zM100 834h66v187h-66v-187z" />
<glyph unicode="&#xa2;" horiz-adv-x="1059" d="M80 502q0 -211 146 -365q145 -154 354 -167v-265h66v265q201 12 344 155l-46 47q-124 -123 -298 -136v932q174 -12 298 -135l46 46q-143 143 -344 156v265h-66v-265q-209 -13 -354 -167q-146 -154 -146 -366zM146 502q0 185 126 320q126 134 308 146v-932 q-182 13 -308 147q-126 135 -126 319z" />
<glyph unicode="&#xa3;" horiz-adv-x="694" d="M90 0h533v66h-467v617h467v66h-467v170q0 194 137 331t330 137v66q-220 0 -377 -157q-156 -156 -156 -377v-919z" />
<glyph unicode="&#xa4;" d="M70 718q0 -202 134 -353l-132 -132l47 -46l132 131q151 -134 352 -134q202 0 353 134l132 -131l46 46l-131 132q134 151 134 353q0 201 -134 352l131 132l-46 46l-132 -131q-151 134 -353 134q-201 0 -352 -134l-132 131l-47 -46l132 -132q-134 -151 -134 -352zM136 718 q0 193 137 330t330 137q194 0 331 -137t137 -330q0 -194 -137 -331t-331 -137q-193 0 -330 137t-137 331z" />
<glyph unicode="&#xa5;" horiz-adv-x="1077" d="M20 1435l449 -684h-353v-66h389v-277h-389v-66h389v-342h66v342h389v66h-389v277h389v66h-353l449 684h-79l-434 -661h-10l-434 661h-79z" />
<glyph unicode="&#xa6;" horiz-adv-x="277" d="M100 -183h66v686h-66v-686zM100 904h66v725h-66v-725z" />
<glyph unicode="&#xa7;" horiz-adv-x="785" d="M70 83q131 -138 318 -138q11 0 20 1q124 7 203 80q90 83 82 220q-9 144 -148 211q183 74 171 275q-8 123 -107 189q-71 47 -211 74q-227 42 -237 203q-6 89 54 156q59 67 149 73q41 4 101 -10q114 -25 191 -106l48 45q-91 96 -224 126q-69 16 -121 11q-116 -7 -194 -95 q-77 -88 -70 -204q9 -143 139 -214q-77 -36 -122 -109q-46 -76 -40 -164q13 -211 291 -263q137 -26 198 -73q61 -46 66 -129q6 -110 -65 -172q-61 -52 -159 -58q-37 -5 -97 9q-111 26 -188 107zM137 712q-5 88 54 155t148 73q25 -6 47 -10q137 -26 198 -72q61 -47 66 -130 q7 -110 -65 -172q-61 -52 -159 -58q-23 5 -51 10q-228 43 -238 204z" />
<glyph unicode="&#xa8;" horiz-adv-x="364" d="M50 1248h66v187h-66v-187zM247 1248h66v187h-66v-187z" />
<glyph unicode="&#xa9;" horiz-adv-x="1610" d="M70 706q0 304 216 519q215 216 520 216q304 0 519 -216q216 -215 216 -519q0 -305 -216 -520q-215 -216 -519 -216q-305 0 -520 216q-216 215 -216 520zM136 706q0 -277 196 -474q197 -196 474 -196q276 0 473 196q196 197 196 474q0 276 -196 473q-197 196 -473 196 q-277 0 -474 -196q-196 -197 -196 -473zM410 706q0 -168 119 -287q118 -118 286 -118t287 120l-47 47q-99 -101 -240 -101q-140 0 -240 99q-99 99 -99 240q0 140 99 239q100 99 240 99q139 0 238 -98l46 47q-118 117 -284 117q-168 0 -286 -118q-119 -119 -119 -286z" />
<glyph unicode="&#xaa;" horiz-adv-x="648" />
<glyph unicode="&#xab;" horiz-adv-x="1055" d="M80 663l513 -380v83l-475 351l475 352v83l-513 -380v-109zM482 663l513 -380v83l-475 351l475 352v83l-513 -380v-109z" />
<glyph unicode="&#xac;" horiz-adv-x="1014" />
<glyph unicode="&#xad;" horiz-adv-x="1401" d="M70 684h1262v66h-1262v-66z" />
<glyph unicode="&#xae;" horiz-adv-x="1610" d="M70 706q0 304 216 519q215 216 520 216q304 0 519 -216q216 -215 216 -519q0 -305 -216 -520q-215 -216 -519 -216q-305 0 -520 216q-216 215 -216 520zM136 706q0 -277 196 -474q197 -196 474 -196q276 0 473 196q196 197 196 474q0 276 -196 473q-197 196 -473 196 q-277 0 -474 -196q-196 -197 -196 -473zM584 311h66v281h194q19 0 42 4l164 -285h76l-175 305q66 31 106 92q41 63 41 138q0 105 -75 180q-74 74 -179 74h-260v-789zM650 658v376h194q78 0 133 -55t55 -133t-55 -133t-133 -55h-194z" />
<glyph unicode="&#xaf;" horiz-adv-x="1401" d="M70 1433h1262v66h-1262v-66z" />
<glyph unicode="&#xb0;" horiz-adv-x="729" d="M71 1147q0 121 86 207t207 86q122 0 208 -86t86 -207q0 -122 -86 -208t-208 -86q-121 0 -207 86t-86 208zM137 1147q0 -95 67 -161q66 -67 160 -67t161 67q67 66 67 161q0 94 -67 160q-67 67 -161 67t-160 -67q-67 -66 -67 -160z" />
<glyph unicode="&#xb1;" horiz-adv-x="1401" d="M70 -1v-66h1262v66h-1262zM70 684h598v-598h66v598h598v66h-598v599h-66v-599h-598v-66z" />
<glyph unicode="&#xb2;" horiz-adv-x="1014" />
<glyph unicode="&#xb3;" horiz-adv-x="1014" />
<glyph unicode="&#xb4;" horiz-adv-x="255" d="M21 1178h75l138 257h-75z" />
<glyph unicode="&#xb5;" horiz-adv-x="1180" />
<glyph unicode="&#xb6;" horiz-adv-x="1024" />
<glyph unicode="&#xb7;" horiz-adv-x="168" d="M51 834h66v187h-66v-187z" />
<glyph unicode="&#xb8;" horiz-adv-x="372" d="M63 -453q31 -11 64 -11q61 0 111 35q52 36 73 95q23 67 -2 134q-26 66 -87 100l25 70h12l-80 6l-40 -114l31 -11q50 -17 73 -65t5 -98q-17 -50 -65 -73t-98 -6z" />
<glyph unicode="&#xb9;" horiz-adv-x="1014" />
<glyph unicode="&#xba;" horiz-adv-x="718" />
<glyph unicode="&#xbb;" horiz-adv-x="1055" d="M80 283l513 380v109l-513 380v-83l475 -352l-475 -351v-83zM482 283l513 380v109l-513 380v-83l475 -352l-475 -351v-83z" />
<glyph unicode="&#xbc;" horiz-adv-x="1708" />
<glyph unicode="&#xbd;" horiz-adv-x="1964" />
<glyph unicode="&#xbe;" horiz-adv-x="1708" />
<glyph unicode="&#xbf;" horiz-adv-x="732" d="M50 -104q0 -130 92 -223q93 -93 223 -93q157 0 252 125q65 85 65 191h-66q0 -84 -51 -151q-76 -99 -200 -99q-103 0 -176 73q-73 74 -73 177q0 78 182 563q42 112 85 235h-71q-35 -104 -75 -212q-187 -496 -187 -586zM314 834h66v187h-66v-187z" />
<glyph unicode="&#xc0;" horiz-adv-x="1348" d="M20 0h71l133 321h899l133 -321h71l-594 1435h-118zM252 387l422 1018l422 -1018h-844zM510 1789l138 -257h75l-138 257h-75z" />
<glyph unicode="&#xc1;" horiz-adv-x="1348" d="M20 0h71l133 321h899l133 -321h71l-594 1435h-118zM252 387l422 1018l422 -1018h-844zM619 1532h75l138 257h-75z" />
<glyph unicode="&#xc2;" horiz-adv-x="1348" d="M20 0h71l133 321h899l133 -321h71l-594 1435h-118zM252 387l422 1018l422 -1018h-844zM412 1532h83l179 236l178 -236h83l-194 257h-135z" />
<glyph unicode="&#xc3;" horiz-adv-x="1348" d="M20 0h71l133 321h899l133 -321h71l-594 1435h-118zM252 387l422 1018l422 -1018h-844zM440 1585q82 68 208 -8q75 -45 152 -45q55 0 108 24v75q-108 -68 -226 3q-136 82 -242 30v-79z" />
<glyph unicode="&#xc4;" horiz-adv-x="1348" d="M20 0h71l133 321h899l133 -321h71l-594 1435h-118zM252 387l422 1018l422 -1018h-844zM538 1532h66v187h-66v-187zM735 1532h66v187h-66v-187z" />
<glyph unicode="&#xc5;" horiz-adv-x="1348" d="M20 0h71l133 321h899l133 -321h71l-577 1393q95 25 156 103q61 79 61 180q0 121 -86 207t-207 86q-122 0 -208 -86t-86 -207q0 -101 62 -180q60 -78 155 -103zM252 387l412 996h5q3 -1 5 -1q1 0 4 1h5l413 -996h-844zM446 1676q0 94 67 161q67 66 161 66t161 -66 q66 -67 66 -161t-66 -161q-67 -67 -161 -67t-161 67t-67 161z" />
<glyph unicode="&#xc6;" horiz-adv-x="1628" d="M20 0h71l133 321h449v-321h884v66h-818v618h735v66h-735v619h818v66h-942zM252 387l421 1016v-1016h-421z" />
<glyph unicode="&#xc7;" horiz-adv-x="1370" d="M70 706q0 -282 188 -491q187 -208 464 -240l-40 -113l31 -11q50 -17 73 -65t5 -98q-17 -50 -65 -73t-98 -6l-22 -62q31 -11 64 -11q61 0 111 35q52 36 73 95q23 67 -2 134q-26 66 -87 100l25 70q21 0 16 0q283 0 494 191l-47 47q-191 -172 -447 -172q-277 0 -474 196 q-196 197 -196 474q0 276 196 473q197 196 474 196q256 0 447 -172l47 47q-211 191 -494 191q-305 0 -520 -216q-216 -215 -216 -519z" />
<glyph unicode="&#xc8;" horiz-adv-x="1024" d="M70 0h884v66h-818v618h735v66h-735v619h818v66h-884v-1435zM405 1789l139 -257h75l-139 257h-75z" />
<glyph unicode="&#xc9;" horiz-adv-x="1024" d="M70 0h884v66h-818v618h735v66h-735v619h818v66h-884v-1435zM405 1532h75l139 257h-75z" />
<glyph unicode="&#xca;" horiz-adv-x="1024" d="M70 0h884v66h-818v618h735v66h-735v619h818v66h-884v-1435zM250 1532h83l179 236l178 -236h83l-194 257h-135z" />
<glyph unicode="&#xcb;" horiz-adv-x="1024" d="M70 0h884v66h-818v618h735v66h-735v619h818v66h-884v-1435zM388 1532h66v187h-66v-187zM585 1532h66v187h-66v-187z" />
<glyph unicode="&#xcc;" horiz-adv-x="277" d="M-47 1789l138 -257h75l-138 257h-75zM100 0h66v1435h-66v-1435z" />
<glyph unicode="&#xcd;" horiz-adv-x="277" d="M100 0h66v1435h-66v-1435zM100 1532h75l138 257h-75z" />
<glyph unicode="&#xce;" horiz-adv-x="277" d="M-127 1532h83l179 236l178 -236h83l-194 257h-135zM100 0h66v1435h-66v-1435z" />
<glyph unicode="&#xcf;" horiz-adv-x="277" d="M9 1532h66v187h-66v-187zM100 0h66v1435h-66v-1435zM206 1532h66v187h-66v-187z" />
<glyph unicode="&#xd0;" horiz-adv-x="1563" d="M80 684h237v-684h459q296 0 507 210q210 211 210 507q0 297 -210 507q-211 211 -507 211h-459v-685h-237v-66zM383 66v618h237v66h-237v619h393q269 0 460 -191t191 -461q0 -269 -191 -460t-460 -191h-393z" />
<glyph unicode="&#xd1;" horiz-adv-x="1273" d="M70 0h66v1394l968 -1394h102v1435h-66v-1371l-952 1371h-118v-1435zM404 1585q82 68 208 -8q75 -45 152 -45q55 0 108 24v75q-108 -68 -226 3q-136 82 -242 30v-79z" />
<glyph unicode="&#xd2;" horiz-adv-x="1622" d="M80 706q0 304 216 519q215 216 520 216q304 0 519 -216q216 -215 216 -519q0 -305 -216 -520q-215 -216 -519 -216q-305 0 -520 216q-216 215 -216 520zM146 706q0 -277 196 -474q197 -196 474 -196q276 0 473 196q196 197 196 474q0 276 -196 473q-197 196 -473 196 q-277 0 -474 -196q-196 -197 -196 -473zM709 1789l138 -257h75l-138 257h-75z" />
<glyph unicode="&#xd3;" horiz-adv-x="1622" d="M80 706q0 304 216 519q215 216 520 216q304 0 519 -216q216 -215 216 -519q0 -305 -216 -520q-215 -216 -519 -216q-305 0 -520 216q-216 215 -216 520zM146 706q0 -277 196 -474q197 -196 474 -196q276 0 473 196q196 197 196 474q0 276 -196 473q-197 196 -473 196 q-277 0 -474 -196q-196 -197 -196 -473zM709 1532h75l138 257h-75z" />
<glyph unicode="&#xd4;" horiz-adv-x="1622" d="M80 706q0 304 216 519q215 216 520 216q304 0 519 -216q216 -215 216 -519q0 -305 -216 -520q-215 -216 -519 -216q-305 0 -520 216q-216 215 -216 520zM146 706q0 -277 196 -474q197 -196 474 -196q276 0 473 196q196 197 196 474q0 276 -196 473q-197 196 -473 196 q-277 0 -474 -196q-196 -197 -196 -473zM554 1532h83l179 236l178 -236h83l-194 257h-135z" />
<glyph unicode="&#xd5;" horiz-adv-x="1622" d="M80 706q0 304 216 519q215 216 520 216q304 0 519 -216q216 -215 216 -519q0 -305 -216 -520q-215 -216 -519 -216q-305 0 -520 216q-216 215 -216 520zM146 706q0 -277 196 -474q197 -196 474 -196q276 0 473 196q196 197 196 474q0 276 -196 473q-197 196 -473 196 q-277 0 -474 -196q-196 -197 -196 -473zM582 1585q82 68 208 -8q75 -45 152 -45q55 0 107 24v75q-107 -68 -225 3q-136 82 -242 30v-79z" />
<glyph unicode="&#xd6;" horiz-adv-x="1622" d="M80 706q0 304 216 519q215 216 520 216q304 0 519 -216q216 -215 216 -519q0 -305 -216 -520q-215 -216 -519 -216q-305 0 -520 216q-216 215 -216 520zM146 706q0 -277 196 -474q197 -196 474 -196q276 0 473 196q196 197 196 474q0 276 -196 473q-197 196 -473 196 q-277 0 -474 -196q-196 -197 -196 -473zM685 1532h66v187h-66v-187zM882 1532h66v187h-66v-187z" />
<glyph unicode="&#xd7;" horiz-adv-x="1014" />
<glyph unicode="&#xd8;" horiz-adv-x="1610" d="M70 706q0 -286 193 -496l-120 -121l46 -46l121 120q210 -193 496 -193q304 0 519 216q216 215 216 520q0 285 -193 496l120 120l-46 46l-120 -120q-211 193 -496 193q-305 0 -520 -216q-216 -215 -216 -519zM136 706q0 276 196 473q197 196 474 196q257 0 449 -173 l-945 -946q-174 192 -174 450zM356 210l946 945q173 -192 173 -449q0 -277 -196 -474q-197 -196 -473 -196q-258 0 -450 174z" />
<glyph unicode="&#xd9;" horiz-adv-x="1298" d="M70 550q0 -240 170 -410t410 -170q239 0 409 170t170 410v885h-66v-885q0 -213 -150 -363q-151 -151 -363 -151q-213 0 -363 151q-151 150 -151 363v885h-66v-885zM543 1789l138 -257h75l-138 257h-75z" />
<glyph unicode="&#xda;" horiz-adv-x="1298" d="M70 550q0 -240 170 -410t410 -170q239 0 409 170t170 410v885h-66v-885q0 -213 -150 -363q-151 -151 -363 -151q-213 0 -363 151q-151 150 -151 363v885h-66v-885zM543 1532h75l138 257h-75z" />
<glyph unicode="&#xdb;" horiz-adv-x="1298" d="M70 550q0 -240 170 -410t410 -170q239 0 409 170t170 410v885h-66v-885q0 -213 -150 -363q-151 -151 -363 -151q-213 0 -363 151q-151 150 -151 363v885h-66v-885zM388 1532h83l179 236l178 -236h83l-194 257h-135z" />
<glyph unicode="&#xdc;" horiz-adv-x="1298" d="M70 550q0 -240 170 -410t410 -170q239 0 409 170t170 410v885h-66v-885q0 -213 -150 -363q-151 -151 -363 -151q-213 0 -363 151q-151 150 -151 363v885h-66v-885zM518 1532h66v187h-66v-187zM715 1532h66v187h-66v-187z" />
<glyph unicode="&#xdd;" horiz-adv-x="1077" d="M20 1435l485 -739v-696h66v695l485 740h-79l-434 -661h-10l-434 661h-79zM431 1532h75l139 257h-75z" />
<glyph unicode="&#xde;" d="M70 0h66v184h467q221 0 377 156q157 157 157 377q0 221 -157 377q-156 157 -377 157h-467v184h-66v-1435zM136 250v935h467q194 0 331 -137t137 -331q0 -193 -137 -330t-331 -137h-467z" />
<glyph unicode="&#xdf;" horiz-adv-x="906" d="M69 -1h66v1058q0 132 93 225q94 93 225 93q132 0 225 -93t93 -225t-93 -225t-225 -93v-66q132 0 225 -93q93 -94 93 -225q0 -132 -93 -225t-225 -93v-66q159 0 272 112q112 113 112 272q0 115 -64 211q-62 94 -164 140q102 45 164 139q64 96 64 212q0 159 -112 271 q-113 113 -272 113t-271 -113q-113 -112 -113 -271v-1058z" />
<glyph unicode="&#xe0;" d="M70 503q0 -220 156 -377q157 -156 377 -156q149 0 275 77q123 74 193 200v-246h66v1005h-66v-246q-70 126 -193 200q-126 77 -275 77q-220 0 -377 -157q-156 -156 -156 -377zM136 503q0 194 137 331t330 137q194 0 331 -137t137 -331q0 -193 -137 -330t-331 -137 q-193 0 -330 137t-137 330zM497 1431l138 -257h75l-138 257h-75z" />
<glyph unicode="&#xe1;" d="M70 503q0 -220 156 -377q157 -156 377 -156q149 0 275 77q123 74 193 200v-246h66v1005h-66v-246q-70 126 -193 200q-126 77 -275 77q-220 0 -377 -157q-156 -156 -156 -377zM136 503q0 194 137 331t330 137q194 0 331 -137t137 -331q0 -193 -137 -330t-331 -137 q-193 0 -330 137t-137 330zM497 1174h75l138 257h-75z" />
<glyph unicode="&#xe2;" d="M70 503q0 -220 156 -377q157 -156 377 -156q149 0 275 77q123 74 193 200v-246h66v1005h-66v-246q-70 126 -193 200q-126 77 -275 77q-220 0 -377 -157q-156 -156 -156 -377zM136 503q0 194 137 331t330 137q194 0 331 -137t137 -331q0 -193 -137 -330t-331 -137 q-193 0 -330 137t-137 330zM342 1174h83l178 236l179 -236h83l-194 257h-135z" />
<glyph unicode="&#xe3;" d="M70 503q0 -220 156 -377q157 -156 377 -156q149 0 275 77q123 74 193 200v-246h66v1005h-66v-246q-70 126 -193 200q-126 77 -275 77q-220 0 -377 -157q-156 -156 -156 -377zM136 503q0 194 137 331t330 137q194 0 331 -137t137 -331q0 -193 -137 -330t-331 -137 q-193 0 -330 137t-137 330zM369 1227q83 68 209 -8q75 -45 152 -45q55 0 107 24v75q-107 -68 -225 3q-136 82 -243 30v-79z" />
<glyph unicode="&#xe4;" d="M70 503q0 -220 156 -377q157 -156 377 -156q149 0 275 77q123 74 193 200v-246h66v1005h-66v-246q-70 126 -193 200q-126 77 -275 77q-220 0 -377 -157q-156 -156 -156 -377zM136 503q0 194 137 331t330 137q194 0 331 -137t137 -331q0 -193 -137 -330t-331 -137 q-193 0 -330 137t-137 330zM468 1174h66v187h-66v-187zM665 1174h66v187h-66v-187z" />
<glyph unicode="&#xe5;" d="M70 503q0 -220 156 -377q157 -156 377 -156q149 0 275 77q123 74 193 200v-246h66v1005h-66v-246q-70 126 -193 200q-126 77 -275 77q-220 0 -377 -157q-156 -156 -156 -377zM136 503q0 194 137 331t330 137q194 0 331 -137t137 -331q0 -193 -137 -330t-331 -137 q-193 0 -330 137t-137 330zM310 1436q0 121 86 207t207 86q122 0 208 -86t86 -207q0 -122 -86 -208t-208 -86q-121 0 -207 86t-86 208zM376 1436q0 -95 67 -161q66 -67 160 -67t161 67q67 66 67 161q0 94 -67 160q-67 67 -161 67t-160 -67q-67 -66 -67 -160z" />
<glyph unicode="&#xe6;" horiz-adv-x="2217" d="M70 503q0 -220 156 -377q157 -156 377 -156q149 0 275 77q123 74 193 200v-246h66v264q67 -133 193 -213q130 -82 284 -82q220 0 377 156l-47 47q-137 -137 -330 -137q-185 0 -320 126q-134 126 -147 308h1000v33q0 221 -156 377q-157 157 -377 157q-154 0 -284 -82 q-126 -80 -193 -213v264h-66v-246q-70 126 -193 200q-126 77 -275 77q-220 0 -377 -157q-156 -156 -156 -377zM136 503q0 194 137 331t330 137q194 0 331 -137t137 -331q0 -193 -137 -330t-331 -137q-193 0 -330 137t-137 330zM1147 536q13 183 147 308q135 127 320 127 q184 0 319 -127q134 -125 147 -308h-933z" />
<glyph unicode="&#xe7;" horiz-adv-x="1049" d="M70 503q0 -198 130 -349q130 -149 323 -178l-40 -114l31 -11q50 -17 73 -65t5 -98q-17 -50 -65 -73t-98 -6l-22 -62q31 -11 64 -11q61 0 111 35q52 36 73 95q23 67 -2 134q-26 66 -87 100l25 70h12q221 0 377 156l-46 47q-137 -137 -331 -137q-193 0 -330 137t-137 330 q0 194 137 331t330 137q194 0 331 -137l46 46q-156 157 -377 157q-220 0 -377 -157q-156 -156 -156 -377z" />
<glyph unicode="&#xe8;" d="M70 503q0 -220 156 -377q157 -156 377 -156q221 0 377 156l-46 47q-137 -137 -331 -137q-184 0 -319 126q-134 126 -147 308h1000v33q0 221 -157 377q-156 157 -377 157q-220 0 -377 -157q-156 -156 -156 -377zM137 536q13 183 147 308q135 127 319 127q185 0 319 -127 q135 -125 147 -308h-932zM497 1431l138 -257h75l-138 257h-75z" />
<glyph unicode="&#xe9;" d="M70 503q0 -220 156 -377q157 -156 377 -156q221 0 377 156l-46 47q-137 -137 -331 -137q-184 0 -319 126q-134 126 -147 308h1000v33q0 221 -157 377q-156 157 -377 157q-220 0 -377 -157q-156 -156 -156 -377zM137 536q13 183 147 308q135 127 319 127q185 0 319 -127 q135 -125 147 -308h-932zM497 1174h75l138 257h-75z" />
<glyph unicode="&#xea;" d="M70 503q0 -220 156 -377q157 -156 377 -156q221 0 377 156l-46 47q-137 -137 -331 -137q-184 0 -319 126q-134 126 -147 308h1000v33q0 221 -157 377q-156 157 -377 157q-220 0 -377 -157q-156 -156 -156 -377zM137 536q13 183 147 308q135 127 319 127q185 0 319 -127 q135 -125 147 -308h-932zM342 1174h83l178 236l179 -236h83l-194 257h-135z" />
<glyph unicode="&#xeb;" d="M70 503q0 -220 156 -377q157 -156 377 -156q221 0 377 156l-46 47q-137 -137 -331 -137q-184 0 -319 126q-134 126 -147 308h1000v33q0 221 -157 377q-156 157 -377 157q-220 0 -377 -157q-156 -156 -156 -377zM137 536q13 183 147 308q135 127 319 127q185 0 319 -127 q135 -125 147 -308h-932zM468 1174h66v187h-66v-187zM665 1174h66v187h-66v-187z" />
<glyph unicode="&#xec;" horiz-adv-x="265" d="M-47 1431l138 -257h75l-138 257h-75zM100 0h66v1005h-66v-1005z" />
<glyph unicode="&#xed;" horiz-adv-x="265" d="M100 0h66v1005h-66v-1005zM100 1174h75l138 257h-75z" />
<glyph unicode="&#xee;" horiz-adv-x="265" d="M-135 1174h83l178 236l179 -236h83l-194 257h-135zM100 0h66v1005h-66v-1005z" />
<glyph unicode="&#xef;" horiz-adv-x="265" d="M1 1174h66v187h-66v-187zM100 0h66v1005h-66v-1005zM198 1174h66v187h-66v-187z" />
<glyph unicode="&#xf0;" horiz-adv-x="1121" d="M89 589q-54 -195 46 -371q65 -115 179 -181q114 -67 246 -67q129 0 241 64q176 99 230 295q54 195 -46 371l-233 404l217 58l-17 63l-235 -61l-98 170l-59 -29l92 -159l-222 -58l16 -64l240 63l121 -207q-115 67 -248 67q-128 0 -240 -63q-176 -100 -230 -295zM152 571 q47 169 199 255q97 55 208 55q114 0 213 -57q99 -58 155 -157q87 -152 40 -321t-199 -255q-97 -55 -208 -55q-114 0 -213 58q-98 57 -155 156q-86 152 -40 321z" />
<glyph unicode="&#xf1;" horiz-adv-x="981" d="M80 0h66v622q0 144 102 247q103 102 247 102q145 0 247 -102q103 -103 103 -247v-622h66v622q0 171 -122 293t-294 122q-226 0 -349 -191v160h-66v-1006zM261 1227q83 68 209 -8q75 -45 152 -45q55 0 107 24v75q-107 -68 -225 3q-136 82 -243 30v-79z" />
<glyph unicode="&#xf2;" horiz-adv-x="1217" d="M80 503q0 221 156 377q157 157 377 157q221 0 377 -157q157 -156 157 -377q0 -220 -157 -377q-156 -156 -377 -156q-220 0 -377 156q-156 157 -156 377zM146 503q0 -193 137 -330t330 -137q194 0 331 137t137 330q0 194 -137 331t-331 137q-193 0 -330 -137t-137 -331z M497 1431l138 -257h75l-138 257h-75z" />
<glyph unicode="&#xf3;" horiz-adv-x="1217" d="M80 503q0 221 156 377q157 157 377 157q221 0 377 -157q157 -156 157 -377q0 -220 -157 -377q-156 -156 -377 -156q-220 0 -377 156q-156 157 -156 377zM146 503q0 -193 137 -330t330 -137q194 0 331 137t137 330q0 194 -137 331t-331 137q-193 0 -330 -137t-137 -331z M497 1174h75l138 257h-75z" />
<glyph unicode="&#xf4;" horiz-adv-x="1217" d="M80 503q0 221 156 377q157 157 377 157q221 0 377 -157q157 -156 157 -377q0 -220 -157 -377q-156 -156 -377 -156q-220 0 -377 156q-156 157 -156 377zM146 503q0 -193 137 -330t330 -137q194 0 331 137t137 330q0 194 -137 331t-331 137q-193 0 -330 -137t-137 -331z M342 1174h83l178 236l179 -236h83l-194 257h-135z" />
<glyph unicode="&#xf5;" horiz-adv-x="1217" d="M80 503q0 221 156 377q157 157 377 157q221 0 377 -157q157 -156 157 -377q0 -220 -157 -377q-156 -156 -377 -156q-220 0 -377 156q-156 157 -156 377zM146 503q0 -193 137 -330t330 -137q194 0 331 137t137 330q0 194 -137 331t-331 137q-193 0 -330 -137t-137 -331z M369 1227q83 68 209 -8q75 -45 152 -45q55 0 107 24v75q-107 -68 -225 3q-136 82 -243 30v-79z" />
<glyph unicode="&#xf6;" horiz-adv-x="1217" d="M80 503q0 221 156 377q157 157 377 157q221 0 377 -157q157 -156 157 -377q0 -220 -157 -377q-156 -156 -377 -156q-220 0 -377 156q-156 157 -156 377zM146 503q0 -193 137 -330t330 -137q194 0 331 137t137 330q0 194 -137 331t-331 137q-193 0 -330 -137t-137 -331z M468 1174h66v187h-66v-187zM665 1174h66v187h-66v-187z" />
<glyph unicode="&#xf7;" horiz-adv-x="1014" />
<glyph unicode="&#xf8;" d="M70 503q0 -201 134 -352l-120 -121l46 -46l121 120q151 -134 352 -134q221 0 377 156q157 157 157 377q0 202 -134 353l120 120l-47 47l-120 -120q-151 134 -353 134q-220 0 -377 -157q-156 -156 -156 -377zM136 503q0 194 137 331t330 137q175 0 306 -115l-658 -659 q-115 132 -115 306zM297 151l659 658q115 -131 115 -306q0 -193 -137 -330t-331 -137q-174 0 -306 115z" />
<glyph unicode="&#xf9;" horiz-adv-x="981" d="M70 385v621h66v-621q0 -144 102 -247q103 -102 247 -102q145 0 247 102q103 103 103 247v621h66v-621q0 -171 -122 -293t-294 -122q-171 0 -293 122t-122 293zM379 1431l138 -257h75l-138 257h-75z" />
<glyph unicode="&#xfa;" horiz-adv-x="981" d="M70 385v621h66v-621q0 -144 102 -247q103 -102 247 -102q145 0 247 102q103 103 103 247v621h66v-621q0 -171 -122 -293t-294 -122q-171 0 -293 122t-122 293zM379 1174h75l138 257h-75z" />
<glyph unicode="&#xfb;" horiz-adv-x="981" d="M70 385v621h66v-621q0 -144 102 -247q103 -102 247 -102q145 0 247 102q103 103 103 247v621h66v-621q0 -171 -122 -293t-294 -122q-171 0 -293 122t-122 293zM224 1174h83l178 236l179 -236h83l-194 257h-135z" />
<glyph unicode="&#xfc;" horiz-adv-x="981" d="M70 385v621h66v-621q0 -144 102 -247q103 -102 247 -102q145 0 247 102q103 103 103 247v621h66v-621q0 -171 -122 -293t-294 -122q-171 0 -293 122t-122 293zM349 1174h66v187h-66v-187zM546 1174h66v187h-66v-187z" />
<glyph unicode="&#xfd;" horiz-adv-x="990" d="M20 1005l417 -1006h46l-202 -487h71l619 1493h-71l-404 -975l-405 975h-71zM389 1174h75l138 257h-75z" />
<glyph unicode="&#xfe;" d="M70 0h66v461q69 -126 192 -201q127 -76 275 -76q221 0 377 156q157 157 157 377q0 221 -157 377q-156 157 -377 157q-148 0 -275 -77q-123 -74 -192 -200v461h-66v-1435zM136 717q0 194 137 331t330 137q194 0 331 -137t137 -331q0 -193 -137 -330t-331 -137 q-193 0 -330 137t-137 330z" />
<glyph unicode="&#xff;" horiz-adv-x="990" d="M20 1005l417 -1006h46l-202 -487h71l619 1493h-71l-404 -975l-405 975h-71zM358 1174h66v187h-66v-187zM555 1174h66v187h-66v-187z" />
<glyph unicode="&#x2c6;" horiz-adv-x="563" d="M22 1178h83l179 236l178 -236h83l-194 257h-135z" />
<glyph unicode="&#x2dc;" horiz-adv-x="610" d="M71 1342q82 68 208 -8q75 -45 152 -45q55 0 108 24v75q-108 -68 -226 3q-136 82 -242 30v-79z" />
<glyph unicode="&#x2000;" horiz-adv-x="984" />
<glyph unicode="&#x2001;" horiz-adv-x="1969" />
<glyph unicode="&#x2002;" horiz-adv-x="984" />
<glyph unicode="&#x2003;" horiz-adv-x="1969" />
<glyph unicode="&#x2004;" horiz-adv-x="656" />
<glyph unicode="&#x2005;" horiz-adv-x="492" />
<glyph unicode="&#x2006;" horiz-adv-x="328" />
<glyph unicode="&#x2007;" horiz-adv-x="328" />
<glyph unicode="&#x2008;" horiz-adv-x="246" />
<glyph unicode="&#x2009;" horiz-adv-x="393" />
<glyph unicode="&#x200a;" horiz-adv-x="109" />
<glyph unicode="&#x2010;" horiz-adv-x="1401" d="M70 684h1262v66h-1262v-66z" />
<glyph unicode="&#x2011;" horiz-adv-x="1401" d="M70 684h1262v66h-1262v-66z" />
<glyph unicode="&#x2012;" horiz-adv-x="1401" d="M70 684h1262v66h-1262v-66z" />
<glyph unicode="&#x2013;" horiz-adv-x="1401" d="M70 684h1262v66h-1262v-66z" />
<glyph unicode="&#x2014;" horiz-adv-x="1401" d="M70 684h1262v66h-1262v-66z" />
<glyph unicode="&#x2018;" horiz-adv-x="205" d="M70 1002v206q-1 46 13 96q26 98 98 131l28 -60q-75 -34 -73 -167v-206h-66z" />
<glyph unicode="&#x2019;" horiz-adv-x="205" d="M0 1062q75 34 73 167v206h66v-206q1 -46 -13 -96q-26 -98 -98 -131z" />
<glyph unicode="&#x201a;" horiz-adv-x="168" d="M-22 -186q75 34 73 167v206h66v-206q1 -46 -13 -96q-26 -98 -98 -131z" />
<glyph unicode="&#x201c;" horiz-adv-x="383" d="M70 1002v206q-1 46 13 96q26 98 98 131l28 -60q-75 -34 -73 -167v-206h-66zM254 1002v206q-1 46 13 96q26 98 98 131l28 -60q-75 -34 -73 -167v-206h-66z" />
<glyph unicode="&#x201d;" horiz-adv-x="383" d="M0 1062q75 34 73 167v206h66v-206q1 -46 -13 -96q-26 -98 -98 -131zM184 1062q75 34 73 167v206h66v-206q1 -46 -13 -96q-26 -98 -98 -131z" />
<glyph unicode="&#x201e;" horiz-adv-x="383" d="M0 -186q75 34 73 167v206h66v-206q1 -46 -13 -96q-26 -98 -98 -131zM184 -186q75 34 73 167v206h66v-206q1 -46 -13 -96q-26 -98 -98 -131z" />
<glyph unicode="&#x2022;" horiz-adv-x="168" d="M51 834h66v187h-66v-187z" />
<glyph unicode="&#x2026;" horiz-adv-x="2048" />
<glyph unicode="&#x202f;" horiz-adv-x="393" />
<glyph unicode="&#x2039;" horiz-adv-x="663" d="M80 663l513 -380v83l-475 351l475 352v83l-513 -380v-109z" />
<glyph unicode="&#x203a;" horiz-adv-x="663" d="M80 283l513 380v109l-513 380v-83l475 -352l-475 -351v-83z" />
<glyph unicode="&#x205f;" horiz-adv-x="492" />
<glyph unicode="&#x20ac;" horiz-adv-x="1370" d="M70 706q0 -305 216 -520q215 -216 520 -216q283 0 494 191l-47 47q-191 -172 -447 -172q-239 0 -424 151q-182 150 -231 378h974v66h-985q-4 38 -4 75q0 36 4 74h985v66h-974q49 228 231 378q185 151 424 151q256 0 447 -172l47 47q-211 191 -494 191q-305 0 -520 -216 q-216 -215 -216 -519z" />
<glyph unicode="&#x2122;" horiz-adv-x="1986" d="M70 1369h288v-832h66v832h299v66h-653v-66zM837 537h66v860l411 -860h126l410 860v-860h66v898h-121l-418 -877l-419 877h-121v-898z" />
<glyph unicode="&#x25fc;" horiz-adv-x="1004" d="M0 0v1005h1005v-1005h-1005z" />
</font>
</defs>
</svg>
